<!-- PWA Icon Placeholder - 512x512 -->
<svg width="512" height="512" viewBox="0 0 512 512" fill="none" xmlns="http://www.w3.org/2000/svg">
  <rect width="512" height="512" rx="64" fill="url(#grad1)"/>
  <defs>
    <linearGradient id="grad1" x1="0%" y1="0%" x2="100%" y2="100%">
      <stop offset="0%" style="stop-color:#059669;stop-opacity:1" />
      <stop offset="100%" style="stop-color:#047857;stop-opacity:1" />
    </linearGradient>
  </defs>
  
  <g transform="translate(96, 96)">
    <!-- Mountain landscape -->
    <path d="M160 300 L80 185 L0 300 Z" fill="#047857" opacity="0.7"/>
    <path d="M240 300 L173 195 L106 300 Z" fill="#10B981"/>
    <path d="M320 300 L253 210 L186 300 Z" fill="#047857" opacity="0.7"/>
    
    <!-- Trees -->
    <circle cx="266" cy="175" r="20" fill="#34D399"/>
    <rect x="260" y="175" width="12" height="40" fill="#047857"/>
    
    <circle cx="100" cy="210" r="15" fill="#34D399"/>
    <rect x="95" y="210" width="10" height="30" fill="#047857"/>
    
    <!-- Sun with rays -->
    <circle cx="60" cy="70" r="32" fill="#FBBF24" opacity="0.95"/>
    <circle cx="60" cy="70" r="24" fill="#FCD34D"/>
    
    <!-- Sun rays -->
    <line x1="60" y1="30" x2="60" y2="10" stroke="#FCD34D" stroke-width="4" stroke-linecap="round"/>
    <line x1="60" y1="130" x2="60" y2="110" stroke="#FCD34D" stroke-width="4" stroke-linecap="round"/>
    <line x1="20" y1="70" x2="0" y2="70" stroke="#FCD34D" stroke-width="4" stroke-linecap="round"/>
    <line x1="100" y1="70" x2="120" y2="70" stroke="#FCD34D" stroke-width="4" stroke-linecap="round"/>
    
    <!-- Path/Route -->
    <path d="M10 300 Q80 270, 160 280 T320 300" stroke="#D1FAE5" stroke-width="4" fill="none" stroke-dasharray="10,10" opacity="0.8"/>
    <path d="M10 290 Q80 260, 160 270 T320 290" stroke="#FFFFFF" stroke-width="2" fill="none" stroke-dasharray="8,8" opacity="0.4"/>
    
    <!-- Brand Text -->
    <text x="30" y="150" font-family="Arial, sans-serif" font-size="48" font-weight="bold" fill="white" opacity="0.95">ROOTSnROUTES</text>
    
    <!-- Tagline -->
    <text x="40" y="190" font-family="Arial, sans-serif" font-size="16" fill="white" opacity="0.8">Discover Jharkhand</text>
  </g>
</svg>
